<?xml version="1.0" encoding="UTF-8" standalone="no"?>
<svg
   xmlns:dc="http://purl.org/dc/elements/1.1/"
   xmlns:cc="http://creativecommons.org/ns#"
   xmlns:rdf="http://www.w3.org/1999/02/22-rdf-syntax-ns#"
   xmlns:svg="http://www.w3.org/2000/svg"
   xmlns="http://www.w3.org/2000/svg"
   xmlns:sodipodi="http://sodipodi.sourceforge.net/DTD/sodipodi-0.dtd"
   xmlns:inkscape="http://www.inkscape.org/namespaces/inkscape"
   width="48mm"
   height="49mm"
   viewBox="0 0 48 49"
   version="1.1"
   id="svg8"
   inkscape:version="1.0.1 (3bc2e813f5, 2020-09-07)"
   sodipodi:docname="html.svg">
  <defs
     id="defs2">
    <clipPath
       clipPathUnits="userSpaceOnUse"
       id="clipPath36">
      <rect
         style="fill:#ffffff;stroke:#000000;stroke-width:0.001;stroke-opacity:0.988551"
         id="rect38"
         width="228.82137"
         height="209.44272"
         x="59.126534"
         y="19.943539" />
    </clipPath>
  </defs>
  <sodipodi:namedview
     id="base"
     pagecolor="#ffffff"
     bordercolor="#666666"
     borderopacity="1.0"
     inkscape:pageopacity="0.0"
     inkscape:pageshadow="2"
     inkscape:zoom="0.7"
     inkscape:cx="189.90089"
     inkscape:cy="142.00842"
     inkscape:document-units="mm"
     inkscape:current-layer="layer1"
     inkscape:document-rotation="0"
     showgrid="false"
     borderlayer="false"
     inkscape:pagecheckerboard="false"
     inkscape:window-width="1366"
     inkscape:window-height="703"
     inkscape:window-x="0"
     inkscape:window-y="28"
     inkscape:window-maximized="1" />
  <metadata
     id="metadata5">
    <rdf:RDF>
      <cc:Work
         rdf:about="">
        <dc:format>image/svg+xml</dc:format>
        <dc:type
           rdf:resource="http://purl.org/dc/dcmitype/StillImage" />
        <dc:title></dc:title>
      </cc:Work>
    </rdf:RDF>
  </metadata>
  <g
     inkscape:label="Capa 1"
     inkscape:groupmode="layer"
     id="layer1">
    <path
       style="fill:#000000;stroke-width:0.0934598"
       d="M 17.445292,47.337923 C 13.70029,46.292793 10.611263,45.412759 10.580796,45.382292 10.532846,45.334342 7.4883515,11.620262 7.4810545,11.056401 l -0.0027,-0.210285 H 24.394618 41.310879 l -0.0027,0.210285 c -0.0064,0.531968 -3.056094,34.282124 -3.101689,34.327717 -0.05636,0.05661 -13.808538,3.880268 -13.8972,3.864052 -0.03009,-0.0055 -3.118801,-0.865114 -6.863809,-1.910247 z m 11.356327,-6.63934 c 2.33091,-0.646938 4.248239,-1.186373 4.260729,-1.198745 0.03104,-0.03076 1.14465,-12.467333 1.145147,-12.788886 l 2.65e-4,-0.257018 h -7.710362 c -4.240744,0 -7.711653,-0.01053 -7.713122,-0.02339 -0.04269,-0.373123 -0.368499,-3.99764 -0.369597,-4.111721 -0.0015,-0.153657 0.46503,-0.164412 8.106085,-0.186921 l 8.107654,-0.02388 0.19049,-2.083705 c 0.104767,-1.146035 0.17136,-2.102835 0.147979,-2.126215 -0.02339,-0.02339 -4.813747,-0.04251 -10.645255,-0.04251 H 13.718887 l 0.05462,0.397206 c 0.03006,0.218465 0.289112,3.067825 0.575716,6.331914 0.2866,3.264093 0.538848,5.98728 0.560548,6.051534 0.03112,0.09213 1.58841,0.116825 7.367514,0.116825 h 7.328061 l -0.04266,0.397205 c -0.02346,0.218464 -0.134169,1.448586 -0.246013,2.733604 l -0.203354,2.336395 -2.366315,0.638082 -2.366319,0.63808 -2.364672,-0.635981 -2.364678,-0.635982 -0.109478,-1.263706 c -0.06021,-0.695039 -0.133943,-1.463476 -0.163851,-1.707639 l -0.05438,-0.443936 h -2.090811 -2.090809 l 0.0017,0.397205 c 0.0025,0.500981 0.523405,6.234634 0.570602,6.280161 0.07812,0.07535 8.371462,2.368103 8.600934,2.377787 0.136434,0.0057 2.155169,-0.518848 4.48608,-1.165784 z M 10.562513,4.6310241 V 1.4066558 h 1.071728 1.071728 l 0.02642,1.0514242 0.02642,1.0514239 1.004695,0.02653 1.004694,0.02653 V 2.4846114 1.4066594 h 1.074792 1.074787 V 4.6310278 7.8553992 H 15.842993 14.768202 V 6.7806089 5.705818 H 13.740142 12.71208 V 6.7806089 7.8553992 H 11.637291 10.5625 Z M 19.72159,5.7058143 V 3.556237 H 18.786991 17.852393 V 2.4814469 1.4066558 h 2.943989 2.943992 V 2.4814469 3.556237 H 22.805771 21.871172 V 5.7058143 7.8553952 H 20.796382 19.72159 Z M 24.768431,4.6310241 V 1.4066558 l 1.098157,5.63e-5 1.098153,5.64e-5 0.690525,1.1294122 c 0.495228,0.8099879 0.713972,1.0941194 0.773435,1.0046373 0.0456,-0.068623 0.357894,-0.5768851 0.693975,-1.1294675 l 0.611065,-1.0046947 h 1.115554 1.115558 v 3.2243683 3.2243711 h -1.072531 -1.072529 l -0.02565,-1.5513604 -0.02561,-1.551364 -0.695186,1.0840636 c -0.382354,0.5962345 -0.71881,1.0822119 -0.74768,1.0799468 -0.02886,-0.00209 -0.34689,-0.4688303 -0.706713,-1.0368206 -0.359818,-0.5679879 -0.685762,-1.0522754 -0.724314,-1.0761892 -0.03855,-0.023913 -0.0701,0.6529361 -0.0701,1.5041187 v 1.5476051 h -1.028061 -1.028062 z m 8.317941,0 V 1.4066558 h 1.07479 1.074787 V 3.556237 5.7058143 h 1.495362 1.495359 v 1.0747909 1.07479 h -2.57015 -2.570148 z"
       id="path106" />
  </g>
</svg>
