<?xml version="1.0" encoding="UTF-8" standalone="no"?>
<svg
   xmlns:dc="http://purl.org/dc/elements/1.1/"
   xmlns:cc="http://creativecommons.org/ns#"
   xmlns:rdf="http://www.w3.org/1999/02/22-rdf-syntax-ns#"
   xmlns:svg="http://www.w3.org/2000/svg"
   xmlns="http://www.w3.org/2000/svg"
   xmlns:sodipodi="http://sodipodi.sourceforge.net/DTD/sodipodi-0.dtd"
   xmlns:inkscape="http://www.inkscape.org/namespaces/inkscape"
   width="48mm"
   height="49mm"
   viewBox="0 0 48 49"
   version="1.1"
   id="svg8"
   inkscape:version="1.0.1 (3bc2e813f5, 2020-09-07)"
   sodipodi:docname="python.svg">
  <defs
     id="defs2">
    <clipPath
       clipPathUnits="userSpaceOnUse"
       id="clipPath36">
      <rect
         style="fill:#ffffff;stroke:#000000;stroke-width:0.001;stroke-opacity:0.988551"
         id="rect38"
         width="228.82137"
         height="209.44272"
         x="59.126534"
         y="19.943539" />
    </clipPath>
  </defs>
  <sodipodi:namedview
     id="base"
     pagecolor="#ffffff"
     bordercolor="#666666"
     borderopacity="1.0"
     inkscape:pageopacity="0.0"
     inkscape:pageshadow="2"
     inkscape:zoom="0.7"
     inkscape:cx="189.90089"
     inkscape:cy="142.00842"
     inkscape:document-units="mm"
     inkscape:current-layer="layer1"
     inkscape:document-rotation="0"
     showgrid="false"
     borderlayer="false"
     inkscape:pagecheckerboard="false"
     inkscape:window-width="1366"
     inkscape:window-height="703"
     inkscape:window-x="0"
     inkscape:window-y="28"
     inkscape:window-maximized="1" />
  <metadata
     id="metadata5">
    <rdf:RDF>
      <cc:Work
         rdf:about="">
        <dc:format>image/svg+xml</dc:format>
        <dc:type
           rdf:resource="http://purl.org/dc/dcmitype/StillImage" />
        <dc:title></dc:title>
      </cc:Work>
    </rdf:RDF>
  </metadata>
  <g
     inkscape:label="Capa 1"
     inkscape:groupmode="layer"
     id="layer1">
    <path
       style="fill:#000000;stroke-width:0.210461"
       d="m 20.785051,47.545699 c -2.546881,-0.321396 -5.517398,-1.403825 -7.150915,-2.605711 -0.335285,-0.246697 -0.8608,-0.874722 -1.167809,-1.395616 -0.524243,-0.889461 -0.562591,-1.136502 -0.630314,-4.061168 -0.09704,-4.190114 0.266902,-8.97251 0.818762,-10.759226 0.276765,-0.896073 0.703948,-1.708217 1.169615,-2.223661 1.237904,-1.370211 1.911778,-1.50236 8.711983,-1.708446 3.298962,-0.09999 6.708417,-0.279632 7.576569,-0.399231 2.768407,-0.381382 4.576514,-1.609869 5.524862,-3.753766 0.501128,-1.132885 0.982067,-3.711658 0.992066,-5.319418 0.0039,-0.649425 0.0688,-1.62932 0.143966,-2.177545 l 0.136613,-0.996773 2.651983,0.07294 c 2.429076,0.06681 2.732815,0.120468 3.613813,0.638402 1.523252,0.895508 2.722968,2.963754 3.589511,6.188142 0.645596,2.402269 0.645596,7.66208 0,10.064349 -0.866543,3.224388 -2.066259,5.292634 -3.589511,6.188143 l -0.961839,0.565458 -9.326045,0.06092 -9.32605,0.06092 0.06579,0.570462 0.06579,0.570464 5.96655,0.05593 5.966553,0.05593 -0.07366,2.680054 c -0.06761,2.459061 -0.120295,2.759372 -0.639121,3.641897 -0.898871,1.528979 -3.024117,2.758658 -6.149028,3.557877 -1.887994,0.482864 -5.859938,0.696233 -7.980144,0.428679 z m 10.723866,-3.953393 c 0.979062,-0.793063 1.165252,-1.851492 0.51367,-2.920065 -0.803967,-1.318481 -2.611398,-1.380063 -3.600464,-0.122668 -0.694619,0.883062 -0.373698,2.629495 0.585897,3.188404 0.584052,0.340178 2.003149,0.257524 2.500897,-0.145669 z M 5.2289651,35.758246 C 3.139176,35.129002 1.6773076,33.020432 0.61903387,29.108973 c -0.65068304,-2.404969 -0.65068304,-7.65938 0,-10.064349 C 1.4937598,15.81158 2.6900465,13.750964 4.2115569,12.856482 l 0.9618388,-0.565459 9.3260453,-0.06092 9.326045,-0.06091 -0.06579,-0.570463 -0.06579,-0.570463 -5.966559,-0.05593 -5.966551,-0.05593 0.07366,-2.6800558 c 0.06761,-2.4590611 0.120295,-2.7593676 0.639129,-3.6418977 0.89448,-1.5215057 2.955093,-2.7177956 6.188137,-3.5925216 2.404974,-0.65068299 7.659382,-0.65068299 10.064348,0 3.233044,0.874726 5.293669,2.0710159 6.188149,3.5925216 l 0.565454,0.9618425 -0.01933,5.156277 c -0.02179,5.799827 -0.24743,7.723415 -1.127792,9.613632 -1.072127,2.301957 -2.909001,2.995005 -8.007877,3.02136 -5.75035,0.02973 -9.901452,0.333191 -11.17982,0.817305 -2.227448,0.843518 -3.526943,2.706918 -4.090043,5.864875 -0.159232,0.892992 -0.292817,2.154972 -0.296858,2.804398 -0.004,0.649423 -0.06753,1.620172 -0.141175,2.157218 L 10.482947,35.96781 8.1438748,35.94972 C 6.8573907,35.939772 5.5456936,35.853613 5.2289969,35.758255 Z M 18.114383,8.2934793 C 19.332259,7.6636894 19.701144,6.4731378 19.061594,5.236391 18.661679,4.4630352 18.150966,4.1870373 17.130853,4.1929815 c -2.314341,0.013484 -2.964375,3.183884 -0.842052,4.1069449 0.863242,0.3754521 1.088607,0.3746568 1.825582,-0.00645 z"
       id="path155" />
  </g>
</svg>
