<?xml version="1.0" encoding="UTF-8" standalone="no"?>
<svg
   xmlns:dc="http://purl.org/dc/elements/1.1/"
   xmlns:cc="http://creativecommons.org/ns#"
   xmlns:rdf="http://www.w3.org/1999/02/22-rdf-syntax-ns#"
   xmlns:svg="http://www.w3.org/2000/svg"
   xmlns="http://www.w3.org/2000/svg"
   xmlns:sodipodi="http://sodipodi.sourceforge.net/DTD/sodipodi-0.dtd"
   xmlns:inkscape="http://www.inkscape.org/namespaces/inkscape"
   width="48mm"
   height="49mm"
   viewBox="0 0 48 49"
   version="1.1"
   id="svg8"
   inkscape:version="1.0.1 (3bc2e813f5, 2020-09-07)"
   sodipodi:docname="sql.svg">
  <defs
     id="defs2">
    <clipPath
       clipPathUnits="userSpaceOnUse"
       id="clipPath36">
      <rect
         style="fill:#ffffff;stroke:#000000;stroke-width:0.001;stroke-opacity:0.988551"
         id="rect38"
         width="228.82137"
         height="209.44272"
         x="59.126534"
         y="19.943539" />
    </clipPath>
  </defs>
  <sodipodi:namedview
     id="base"
     pagecolor="#ffffff"
     bordercolor="#666666"
     borderopacity="1.0"
     inkscape:pageopacity="0.0"
     inkscape:pageshadow="2"
     inkscape:zoom="0.7"
     inkscape:cx="189.90089"
     inkscape:cy="142.00842"
     inkscape:document-units="mm"
     inkscape:current-layer="layer1"
     inkscape:document-rotation="0"
     showgrid="false"
     borderlayer="false"
     inkscape:pagecheckerboard="false"
     inkscape:window-width="1366"
     inkscape:window-height="703"
     inkscape:window-x="0"
     inkscape:window-y="28"
     inkscape:window-maximized="1" />
  <metadata
     id="metadata5">
    <rdf:RDF>
      <cc:Work
         rdf:about="">
        <dc:format>image/svg+xml</dc:format>
        <dc:type
           rdf:resource="http://purl.org/dc/dcmitype/StillImage" />
        <dc:title></dc:title>
      </cc:Work>
    </rdf:RDF>
  </metadata>
  <g
     inkscape:label="Capa 1"
     inkscape:groupmode="layer"
     id="layer1">
    <path
       style="fill:#000000;stroke-width:0.209984"
       d="M 15.34673,46.874014 C 7.9552771,45.851096 1.8368546,45.00978 1.7502358,45.004423 1.6636178,44.998823 1.5927478,35.978903 1.5927478,24.959622 V 4.9245618 L 2.3801892,4.8008878 C 2.8132828,4.7328678 5.7189421,4.3436838 8.8372118,3.9360348 21.931001,2.2242988 28.820753,1.3120508 29.363191,1.2182658 l 0.577462,-0.09984 v 1.989603 1.989603 h 7.598131 c 7.242865,0 7.639924,0.02023 8.491756,0.432591 0.648786,0.314075 1.012124,0.677411 1.3262,1.326203 0.425995,0.879996 0.43259,1.155587 0.43259,18.0847382 0,16.929151 -0.0063,17.204743 -0.43259,18.084741 -0.314076,0.648787 -0.677414,1.012124 -1.3262,1.3262 -0.851832,0.41236 -1.248891,0.43259 -8.491756,0.43259 h -7.598131 v 1.994851 1.994851 l -0.577462,-0.02024 C 29.045592,48.743047 22.738184,47.896963 15.34673,46.874045 Z m 30.162006,-4.170613 0.495725,-0.401409 V 24.941164 7.5803398 L 45.508736,7.1789238 C 45.041225,6.8003568 44.584032,6.7775068 37.476832,6.7775068 H 29.940653 V 24.941164 43.104817 h 7.536179 c 7.1072,0 7.564393,-0.02286 8.031904,-0.401416 z M 34.035346,32.521851 C 33.573383,32.37575 32.8892,32.096626 32.514942,31.901573 c -1.278874,-0.666505 -1.305914,-0.798455 -1.287739,-6.28495 0.01897,-5.733942 0.01405,-5.717548 1.918375,-6.381544 0.876888,-0.305754 1.716783,-0.381221 4.144526,-0.372394 3.260353,0.01186 4.421388,0.267131 5.401123,1.187545 0.472948,0.444308 0.478447,0.509224 0.478447,5.647195 v 5.197721 l -0.756586,0.623643 c -0.416123,0.343003 -1.296383,0.775101 -1.956138,0.960217 -1.449047,0.406584 -5.192498,0.431559 -6.421604,0.04285 z m 6.383073,-0.677821 c 1.544634,-0.433542 2.331284,-1.239852 2.331284,-2.389546 0,-0.480474 -0.07087,-0.837269 -0.15749,-0.792877 -2.387752,1.223725 -4.500665,1.581318 -7.134462,1.207451 -0.966648,-0.137216 -2.178222,-0.462459 -2.692391,-0.722764 l -0.934847,-0.473282 v 0.988817 c 0,1.112727 0.275847,1.4696 1.546229,2.0004 1.798878,0.751617 4.740909,0.827574 7.041677,0.181801 z m -0.776325,-3.044026 c 2.272824,-0.48174 3.107609,-1.217794 3.107609,-2.740062 0,-0.527128 -0.06421,-0.611783 -0.367472,-0.484436 -2.042557,0.85773 -2.636408,1.003881 -4.463102,1.09842 -2.184912,0.113077 -3.894584,-0.151001 -5.162451,-0.797397 -0.442741,-0.225723 -0.832245,-0.410404 -0.86557,-0.410404 -0.238537,0 -0.0016,1.919052 0.270751,2.191213 1.179622,1.179624 4.739948,1.723492 7.480235,1.142666 z m 1.455746,-3.704776 c 1.158265,-0.515626 1.651863,-1.147054 1.651863,-2.113114 0,-0.598059 -0.05825,-0.685228 -0.367472,-0.550032 -1.211392,0.529613 -3.301805,0.911255 -5.050667,0.922092 -1.925979,0.01193 -4.752868,-0.466644 -4.986167,-0.844137 -0.283069,-0.458009 -0.514884,-0.126207 -0.514884,0.736953 0,1.088251 0.476694,1.53967 2.208214,2.091108 1.547856,0.492947 5.72939,0.34908 7.059113,-0.24287 z m -22.076381,4.491238 c 0,-0.04364 0.14031,-0.415156 0.3118,-0.82559 l 0.311799,-0.746241 -1.135186,-0.254043 -1.135187,-0.254043 0.716975,-0.676194 c 0.975575,-0.920086 1.404399,-2.0355 1.412502,-3.674059 0.01441,-2.913837 -1.686561,-4.812929 -4.321665,-4.825031 -1.893416,-0.0087 -3.22731,0.851904 -4.061195,2.620194 -1.3290356,2.818277 -0.07302,6.165348 2.607879,6.949564 0.658669,0.192673 2.000771,0.664055 2.982448,1.047514 1.667024,0.651166 2.30983,0.828697 2.30983,0.637929 z M 13.671903,25.80524 c -1.501592,-1.501591 -0.962383,-5.133743 0.838692,-5.649503 1.515202,-0.433897 2.618929,0.802172 2.620218,2.934393 8.73e-4,1.500706 -0.204693,2.159805 -0.865884,2.775799 -0.67041,0.624582 -1.937408,0.594928 -2.593026,-0.06069 z m 13.748937,1.445753 v -0.94493 h -2.099847 -2.099844 v -3.989705 -3.989704 h -1.154916 -1.154914 v 4.794644 c 0,2.637056 0.06299,4.857642 0.13999,4.934635 0.07699,0.07699 1.541635,0.13999 3.254759,0.13999 H 27.42084 Z M 8.3335642,27.442505 c 0.8058554,-0.405734 1.308588,-1.306796 1.308588,-2.345421 0,-1.230894 -0.5419084,-1.90912 -2.1491177,-2.689736 -1.6443708,-0.798662 -1.9631514,-1.260416 -1.262075,-1.828114 0.4886058,-0.395648 1.4190058,-0.420029 2.3060834,-0.06043 0.2461036,0.09976 0.3913171,-0.0668 0.572281,-0.656436 0.3069784,-1.000226 0.145477,-1.160262 -1.2911128,-1.279395 -1.4207241,-0.117817 -2.4088735,0.197987 -3.198549,1.02223 -0.5043118,0.526388 -0.6120932,0.818358 -0.6120932,1.658105 0,1.248094 0.5226895,1.893021 2.1910957,2.703516 1.3189657,0.640743 1.7011623,1.108704 1.3531391,1.656791 -0.1752147,0.275938 -0.5149316,0.367101 -1.3638247,0.365983 -0.6217685,-8.73e-4 -1.3320441,-0.07455 -1.5783913,-0.163844 -0.3928441,-0.142394 -0.465629,-0.06786 -0.592103,0.606299 -0.1749394,0.932507 -0.035071,1.091928 1.160057,1.322198 1.0807699,0.208236 2.3776977,0.08013 3.1560225,-0.311746 z"
       id="path189" />
  </g>
</svg>
